<?xml version="1.0" encoding="utf-8"?>
<!DOCTYPE svg PUBLIC "-//W3C//DTD SVG 1.0//EN" "http://www.w3.org/TR/2001/REC-SVG-20010904/DTD/svg10.dtd">
<svg version="1.0" xmlns="http://www.w3.org/2000/svg" width="330px" height="330px" viewBox="0 0 330 330" preserveAspectRatio="xMidYMid meet">
 <g fill="#000000">
  <path d="M160.5 297 c-8.4 -0.9 -21.6 -3.6 -25 -5 -1.1 -0.5 -3.1 -1.2 -4.5 -1.5 -8.9 -2.5 -37.3 -17.6 -40 -21.4 -0.3 -0.4 -1.8 -1.6 -3.5 -2.8 -5.3 -3.8 -24.5 -23.9 -24.5 -25.7 0 -0.3 -1.5 -2.7 -3.4 -5.3 -9.1 -12.9 -17.6 -34.8 -21.1 -54.7 -1.7 -10 -2 -30.6 -0.5 -41.1 4.3 -30 18.1 -57.6 39.5 -79.1 14.5 -14.5 35.4 -28.4 42.8 -28.4 4.1 0 9.5 2.8 12 6.1 2.6 3.6 2.5 8.5 -0.3 20.9 -2.7 12.5 -3.3 33.9 -1.1 46 6.9 38.8 32.3 72.1 67.9 89.1 22.6 10.7 51.8 14.5 74.2 9.5 18.6 -4.2 17.3 -4.1 21.5 -2 4.9 2.4 7.5 6 8.2 11.2 0.6 4.7 -2.4 11.6 -10.4 23.3 -2.6 3.9 -5.2 7.8 -5.8 8.7 -0.5 0.9 -3.1 4.2 -5.7 7.3 -2.6 3.1 -4.5 5.9 -4.3 6.3 0.3 0.3 0.2 0.4 -0.1 0.1 -0.6 -0.4 -16.3 12.3 -19.6 15.9 -1 1 -1.8 1.6 -1.8 1.3 0 -0.4 -3.8 1.6 -8.4 4.3 -4.7 2.8 -9.1 5 -10 5 -0.8 0 -1.8 0.5 -2.1 1 -0.3 0.6 -1.6 1 -2.9 1 -1.2 0 -5.1 1.1 -8.7 2.5 -6.6 2.7 -18.9 5.8 -22.2 5.7 -1 -0.1 -3.1 0.4 -4.5 0.9 -3.7 1.4 -25.9 2 -35.7 0.9z m28.5 -17.5 c3.5 -0.3 7.1 -0.7 8 -0.9 0.8 -0.3 3.1 -0.7 5.1 -1 2 -0.3 4.9 -1 6.5 -1.7 1.6 -0.6 3.8 -1.3 5 -1.5 7.7 -1.5 28 -12 33.5 -17.4 5 -4.9 11.3 -10.3 13.5 -11.6 3.4 -1.9 20.2 -23 19.1 -24 -0.1 -0.1 -2.2 0.2 -4.7 0.7 -8.6 1.7 -30.2 2.2 -40.9 1 -43.7 -5.1 -83.9 -32 -105.5 -70.5 -10.8 -19.4 -16.5 -39.7 -17.3 -62.1 -0.5 -13.7 0.6 -29.5 2.4 -34.2 1 -2.7 -6.4 2 -15.5 9.8 -20.4 17.3 -34.8 41.3 -40.3 66.9 -3.2 14.7 -3.2 36.2 0 50.9 2.4 11.6 7.1 23.8 12.8 33.9 2 3.7 3.8 7 3.8 7.3 0 0.4 1.5 2.9 3.2 5.7 6.5 9.9 26.2 27.9 35.1 32 2 0.9 3.9 2 4.2 2.3 1.1 1.2 12.7 6.9 15.5 7.5 1.7 0.4 3.5 1 4 1.4 0.6 0.5 2.8 1.1 5 1.5 2.2 0.3 4.9 1 6 1.5 2.2 0.9 13.9 2.9 19.5 3.3 4.1 0.3 12.9 0 22 -0.8z"/>
 </g>
 <g fill="#ffffff">
  <path d="M275 257.7 c3 -3.1 5.6 -5.7 5.9 -5.7 0.3 0 -0.7 1.3 -2.2 2.8 -1.5 1.6 -2.5 3.1 -2.2 3.5 0.3 0.4 0.2 0.5 -0.2 0.2 -0.4 -0.3 -2 0.7 -3.7 2.2 -1.7 1.5 -0.6 0.2 2.4 -3z"/>
 </g>
</svg>