<?xml version="1.0" standalone="no"?>
<!DOCTYPE svg PUBLIC "-//W3C//DTD SVG 20010904//EN"
 "http://www.w3.org/TR/2001/REC-SVG-20010904/DTD/svg10.dtd">
<svg version="1.0" xmlns="http://www.w3.org/2000/svg"
 width="330.000000pt" height="330.000000pt" viewBox="0 0 330.000000 330.000000"
 preserveAspectRatio="xMidYMid meet">

<g transform="translate(0.000000,330.000000) scale(0.100000,-0.100000)"
fill="#000000" stroke="none">
<path d="M1610 3288 c-46 -25 -50 -46 -50 -301 l0 -239 29 -29 c20 -20 39 -29
61 -29 22 0 41 9 61 29 l29 29 0 246 c0 240 0 245 -22 270 -28 31 -74 41 -108
24z"/>
<path d="M496 2819 c-21 -16 -26 -29 -26 -63 0 -41 3 -45 178 -219 158 -157
182 -177 211 -177 45 0 91 46 91 91 0 30 -19 53 -178 211 -164 164 -180 178
-213 178 -22 0 -47 -9 -63 -21z"/>
<path d="M2531 2665 c-171 -170 -176 -175 -176 -216 0 -50 38 -89 88 -89 27 0
54 23 211 179 166 165 180 182 180 215 0 51 -36 86 -88 86 -38 0 -46 -7 -215
-175z"/>
<path d="M1495 2485 c-153 -28 -301 -104 -417 -213 -119 -112 -187 -222 -235
-379 -23 -78 -26 -104 -26 -233 0 -129 3 -155 26 -233 48 -157 116 -267 235
-379 118 -111 265 -185 422 -214 513 -93 990 305 990 826 0 522 -480 921 -995
825z m300 -180 c231 -48 429 -238 494 -475 43 -155 22 -333 -57 -485 -55 -105
-173 -220 -282 -274 -261 -128 -558 -82 -759 119 -85 84 -130 153 -169 262
-24 66 -27 87 -27 208 0 121 3 142 27 208 39 109 84 178 169 262 159 159 379
222 604 175z"/>
<path d="M43 1726 c-22 -19 -28 -32 -28 -66 0 -34 6 -47 28 -66 28 -24 29 -24
273 -24 l246 0 29 29 c20 20 29 39 29 61 0 22 -9 41 -29 61 l-29 29 -246 0
c-244 0 -245 0 -273 -24z"/>
<path d="M2709 1721 c-20 -20 -29 -39 -29 -61 0 -22 9 -41 29 -61 l29 -29 247
0 247 0 29 29 c20 20 29 39 29 61 0 22 -9 41 -29 61 l-29 29 -247 0 -247 0
-29 -29z"/>
<path d="M648 783 c-175 -174 -178 -178 -178 -219 0 -52 34 -84 89 -84 33 0
49 14 213 178 159 158 178 181 178 211 0 45 -46 91 -91 91 -29 0 -53 -20 -211
-177z"/>
<path d="M2383 936 c-22 -19 -28 -32 -28 -65 0 -41 5 -46 176 -216 169 -168
177 -175 215 -175 52 0 88 35 88 86 0 33 -14 50 -180 215 -157 156 -184 179
-211 179 -19 0 -43 -10 -60 -24z"/>
<path d="M1589 600 l-30 -29 3 -250 c3 -245 4 -251 26 -273 33 -34 97 -31 128
5 24 28 24 29 24 273 l0 246 -29 29 c-40 39 -82 39 -122 -1z"/>
</g>
</svg>
